<?xml version="1.0" encoding="utf-8" ?>
<svg xmlns="http://www.w3.org/2000/svg" xmlns:xlink="http://www.w3.org/1999/xlink" width="1024" height="1024">
	<path fill="white" d="M0 0L1024 0L1024 1024L0 1024L0 0Z"/>
	<path fill="#010001" d="M585.585 576.918C585.415 576.758 585.248 576.597 585.077 576.44C583.504 574.994 581.449 573.964 579.71 572.714C573.584 568.312 569.106 562.233 568.618 554.473Q568.591 554.024 568.586 553.574Q568.582 553.124 568.6 552.675Q568.619 552.225 568.66 551.777Q568.701 551.329 568.765 550.884Q568.829 550.439 568.916 549.997Q569.003 549.556 569.111 549.119Q569.22 548.683 569.351 548.252Q569.482 547.822 569.635 547.399Q569.788 546.976 569.961 546.561Q570.135 546.146 570.33 545.74Q570.525 545.335 570.74 544.94Q570.955 544.545 571.19 544.161Q571.425 543.777 571.68 543.406Q571.934 543.035 572.206 542.677Q572.479 542.319 572.77 541.976Q573.06 541.632 573.368 541.304Q573.691 540.958 574.031 540.629Q574.372 540.3 574.728 539.988Q575.085 539.677 575.457 539.384Q575.829 539.09 576.215 538.817Q576.602 538.543 577.001 538.289Q577.401 538.035 577.813 537.802Q578.225 537.569 578.649 537.357Q579.072 537.145 579.506 536.955Q579.94 536.765 580.382 536.597Q580.825 536.429 581.276 536.284Q581.726 536.139 582.184 536.016Q582.641 535.894 583.104 535.796Q583.568 535.697 584.035 535.622Q584.503 535.547 584.973 535.495Q585.444 535.444 585.917 535.417Q586.389 535.389 586.863 535.386C591.663 535.351 596.081 537.347 599.369 540.814C602.721 544.348 604.347 548.721 605.904 553.225C610.073 549.241 614.489 545.438 620.655 545.664C624.954 545.821 628.838 547.998 631.576 551.253C634.746 555.022 636.134 559.956 635.663 564.833C635.263 568.967 633.829 572.198 630.561 574.813C629.474 575.683 628.465 576.414 627.094 576.704C627.064 578.737 626.745 581.217 627.464 583.132C631.798 584.925 634.729 584.57 636.648 589.584C637.619 592.119 637.584 594.888 636.467 597.375C635.439 599.665 633.626 601.652 631.179 602.372C629.848 602.763 628.154 602.602 626.777 602.579Q626.734 617.607 626.963 632.633C635.541 632.762 651.421 631.653 659.21 634.24C661.918 635.14 664.269 636.749 666.244 638.796C667.805 640.412 668.946 642.177 670.031 644.127C678.107 658.639 684.911 673.97 692.595 688.709L705.004 712.347C706.755 715.671 709.041 719.158 710.411 722.63C727.321 722.373 744.254 722.554 761.166 722.558C760.195 716.806 760.03 710.773 760.037 704.942C760.042 700.788 760.166 696.561 761.35 692.55C763.57 685.031 768.163 678.075 771.81 671.184C775.073 665.018 778.053 658.427 782.019 652.676C783.279 650.848 784.825 649.291 786.394 647.733L786.452 606.987C786.381 598.554 785.107 588.425 786.848 580.211Q787.074 579.144 787.371 578.094Q787.667 577.045 788.033 576.017Q788.399 574.99 788.832 573.989Q789.265 572.988 789.764 572.018Q790.263 571.048 790.826 570.113Q791.388 569.179 792.011 568.284Q792.634 567.389 793.316 566.537Q793.997 565.685 794.734 564.881C801.56 557.386 810.704 553.703 820.699 553.25C831.61 553.726 841.716 556.813 849.251 565.121C863.166 580.464 854.217 592.475 859.864 604.731C865 615.877 880.474 623.044 879.259 637.162C879.026 639.866 877.649 642.12 875.518 643.771C871.772 646.671 867.899 647.188 863.333 647.642C870.05 655.065 875.432 663.081 880.624 671.599C896.718 698.003 904.832 725.256 907.317 755.998L965.375 755.987C975.595 755.968 986.641 755.116 996.75 756.328C996.678 782.331 997.732 801.631 977.768 821.49Q976.785 822.456 975.762 823.381Q974.74 824.305 973.68 825.187Q972.62 826.068 971.524 826.904Q970.428 827.741 969.299 828.531Q968.169 829.322 967.008 830.064Q965.847 830.807 964.656 831.501Q963.464 832.195 962.246 832.839Q961.027 833.483 959.782 834.076Q958.537 834.668 957.269 835.209Q956.001 835.749 954.712 836.237Q953.422 836.724 952.114 837.158Q950.805 837.591 949.48 837.97Q948.154 838.349 946.814 838.672Q945.474 838.996 944.122 839.264Q942.769 839.531 941.407 839.742Q940.045 839.954 938.675 840.108C928.893 841.215 918.289 840.448 908.428 840.449L848.591 840.422L668.983 840.427L92.5285 840.56C73.9178 840.394 58.0795 833.771 45.033 820.426C30.6654 805.729 25.6435 787.04 25.9668 767C26.0228 763.526 26.0512 759.951 26.5871 756.515L40.9884 756.401C49.0921 755.761 57.5138 756.099 65.6507 756.109L107.508 756.178L107.519 755.502C108.141 728.394 125.238 673.521 145.129 654.629C146.087 652.312 148.105 650.158 148.507 647.667C152.521 622.779 157.207 583.964 174.412 564.928C180.113 558.62 187.126 554.669 195.784 554.345C204.353 554.024 213.503 557.04 219.743 563.029C223.676 566.803 226.296 571.662 227.612 576.933C229.507 584.52 228.676 593.442 228.688 601.255C228.712 617.868 228.111 634.574 228.663 651.174C247.384 668.606 254.687 696.502 255.613 721.336Q255.653 722.403 255.663 723.47Q274.58 723.696 293.498 723.51C299.365 709.345 305.974 695.426 312.172 681.399C316.781 670.968 320.97 660.008 326.227 649.915C327.685 647.115 329.401 644.186 331.639 641.942C344.265 629.278 360.289 631.381 376.651 631.471C377.537 622.229 376.994 612.55 376.969 603.259C373.373 601.585 369.999 599.594 368.029 595.981C367.142 594.355 366.901 592.603 367.532 590.828C369.023 586.629 373.275 584.396 376.978 582.463C376.474 579.478 372.781 576.074 371.693 572.949C370.945 570.8 370.598 567.738 371.854 565.697C372.569 564.534 373.879 563.821 375.164 563.478C380.016 562.182 382.84 564.026 386.885 566.282C387.317 562.153 387.583 558.702 390.876 555.744C392.392 554.383 394.359 553.724 396.386 553.832C400.685 554.061 402.866 556.476 405.533 559.46C408.212 558.363 412.544 556.859 415.457 557.019C419.562 557.243 419.944 562.353 422.422 564.788C423.8 566.143 426.295 566.524 427.446 568.012C428.523 569.403 429.03 571.012 428.751 572.764C428.329 575.416 426.387 577.755 424.285 579.309C422.074 580.944 419.994 581.752 417.259 581.246C417.109 581.218 416.96 581.185 416.811 581.154L416.464 581.752L416.816 582.367C419.027 582.489 420.574 582.862 422.411 584.14C424.315 585.465 425.537 587.597 425.861 589.878C426.307 593.009 425.297 596.189 423.431 598.698C421.385 601.45 419.333 601.995 416.051 602.52L415.99 632.028C424.976 631.873 434.607 631.033 443.301 633.741C449.902 635.798 455.841 639.422 460.266 644.792C466.608 652.487 471.6 665.969 475.96 675.113Q488.387 701.825 501.762 728.075C505.344 717.942 511.099 708.435 515.706 698.73L528.45 671.968C531.435 665.631 534.207 659.109 537.587 652.97C539.303 649.852 541.265 646.473 543.802 643.945C550.507 637.265 560.705 633.411 570.098 633.535Q577.855 633.656 585.612 633.601C585.073 614.856 584.966 595.659 585.585 576.918Z"/>
	<path fill="#6BA1D5" d="M585.585 576.918L585.914 576.923C585.912 626.522 585.483 676.215 586.091 725.806Q596.936 725.793 607.78 725.978C607.423 736.002 607.99 746.072 607.789 756.118C589.661 756.723 571.314 756.123 553.169 756.092C543.022 756.075 530.759 756.979 520.89 755.926C517.585 755.574 514.428 754.605 511.623 752.797C507.435 750.096 504.732 746.005 503.755 741.13C503.039 737.557 502.933 733.303 503.974 729.809C506.391 721.702 512.983 711.244 516.835 703.311C524.374 687.785 531.999 669.749 540.303 654.834C542.046 651.702 544.268 648.058 546.808 645.524C554.582 637.769 566.884 637.89 569.776 635.593C570.051 635.374 570.167 635.008 570.362 634.716L570.098 633.535Q577.855 633.656 585.612 633.601C585.073 614.856 584.966 595.659 585.585 576.918Z"/>
	<path fill="#010001" d="M570.141 692.154C570.826 692.33 571.467 692.62 572.123 692.881C572.871 695.295 559.731 721.513 557.718 725.856C556.824 725.473 556.329 725.094 555.643 724.406C555.545 720.881 567.714 696.88 570.141 692.154Z"/>
	<path fill="#6BA1D5" d="M626.963 632.633C635.541 632.762 651.421 631.653 659.21 634.24C661.918 635.14 664.269 636.749 666.244 638.796C667.805 640.412 668.946 642.177 670.031 644.127C678.107 658.639 684.911 673.97 692.595 688.709L705.004 712.347C706.755 715.671 709.041 719.158 710.411 722.63Q685.114 722.944 659.815 722.977C656.56 714.911 650.244 699.409 645.664 692.534C644.938 691.445 644.885 691.066 643.585 690.811L642.729 691.427C642.677 694.386 654.437 718.488 656.357 722.944C646.525 722.587 636.665 722.799 626.828 722.875L626.963 632.633Z"/>
	<path fill="#EE5F59" d="M107.508 756.178L107.519 755.502C108.141 728.394 125.238 673.521 145.129 654.629C144.595 659.008 144.836 662.799 146.377 666.986C148.518 672.802 151.854 678.308 154.82 683.734L168.328 708.47L184.772 739.196C187.755 744.836 190.49 750.699 193.811 756.145L102.397 756.467L63.316 756.524C55.9187 756.522 48.3683 756.825 40.9884 756.401C49.0921 755.761 57.5138 756.099 65.6507 756.109L107.508 756.178Z"/>
	<path fill="#EE5F59" d="M820.699 553.25C831.61 553.726 841.716 556.813 849.251 565.121C863.166 580.464 854.217 592.475 859.864 604.731C865 615.877 880.474 623.044 879.259 637.162C879.026 639.866 877.649 642.12 875.518 643.771C871.772 646.671 867.899 647.188 863.333 647.642C860.35 645.485 857.721 643.614 854.248 642.284C843.542 638.186 833.512 640.936 823.45 645.37L823.076 644.767C825.427 638.289 823.912 616.841 823.954 608.646L824.547 608.981C825.219 609.408 825.976 609.81 826.744 610.041C828.552 610.585 830.668 610.158 832.257 609.197C834.519 607.83 836.078 605.384 836.668 602.84C837.181 600.627 836.977 598.226 835.613 596.344C834.195 594.388 832.191 593.72 829.894 593.418C827.958 592.416 826.224 592.055 824.079 591.728C823.875 590.865 823.244 588.757 822.425 588.412C820.6 587.644 817.374 587.852 815.298 587.712C806.452 587.119 797.443 585.493 789.897 580.543C792.775 570.732 799.924 560.885 810.284 558.182C812.992 557.475 817.601 557.165 819.79 555.585C820.537 555.046 820.5 554.094 820.699 553.25Z"/>
	<path fill="#EE5F59" d="M190.727 643.52C195.068 643.48 201.319 642.724 205.404 644.096C207.198 645.668 216.698 646.824 219.677 647.722C222.772 648.654 225.617 650.254 228.663 651.174C247.384 668.606 254.687 696.502 255.613 721.336Q255.653 722.403 255.663 723.47C249.269 723.248 242.83 723.388 236.431 723.387Q218.444 691.862 199.835 660.7C197.204 656.242 193.514 652.227 191.051 647.724C190.202 646.172 190.548 645.201 190.727 643.52Z"/>
	<path fill="white" d="M589.039 577.475C595.293 578.116 601.248 577.2 606.803 574.13C611.891 577.821 614.94 579.575 621.427 578.531Q622.668 578.329 623.905 578.102C624.01 581.232 623.832 584.411 623.757 587.545C624.531 587.5 625.301 587.45 626.074 587.386C628.477 587.185 630.3 587.059 632.196 588.788C633.42 589.903 634.031 591.379 634.072 593.025C634.116 594.785 633.538 596.97 632.22 598.195C630.556 599.741 625.677 599.147 623.503 599.114C623.522 608.363 624.716 626.904 622.746 634.856Q622.451 636.073 622.015 637.247Q621.578 638.422 621.006 639.536Q620.434 640.65 619.734 641.689Q619.034 642.728 618.217 643.677C615.476 646.798 611.285 649.144 607.085 649.333C602.346 649.547 597.697 647.421 594.373 644.109C591.971 641.716 590.204 638.691 589.528 635.353C588.109 628.355 588.875 620.353 588.905 613.198L589.039 577.475Z"/>
	<path fill="#010001" d="M596.373 586.885Q596.466 586.804 596.566 586.732Q596.667 586.661 596.774 586.599Q596.881 586.538 596.994 586.487Q597.106 586.437 597.223 586.397Q597.34 586.358 597.46 586.33Q597.58 586.302 597.702 586.286Q597.825 586.27 597.948 586.266Q598.071 586.262 598.194 586.27Q598.318 586.278 598.439 586.298Q598.561 586.318 598.68 586.35Q598.799 586.382 598.915 586.425Q599.031 586.469 599.141 586.523Q599.252 586.578 599.357 586.642Q599.462 586.707 599.56 586.782Q599.658 586.857 599.748 586.941Q599.838 587.025 599.92 587.118Q600.002 587.211 600.074 587.311Q600.146 587.411 600.208 587.517Q600.27 587.624 600.322 587.736Q600.373 587.848 600.413 587.965Q600.454 588.082 600.482 588.202Q600.511 588.322 600.527 588.444Q600.544 588.566 600.549 588.69Q600.554 588.813 600.546 588.936Q600.539 589.059 600.52 589.181Q600.5 589.303 600.469 589.422Q600.438 589.542 600.396 589.658Q600.353 589.773 600.299 589.885Q600.245 589.996 600.181 590.101Q600.117 590.206 600.042 590.305Q599.968 590.403 599.885 590.494Q599.801 590.585 599.709 590.667Q599.616 590.75 599.516 590.823Q599.416 590.897 599.308 590.96Q599.201 591.023 599.088 591.075Q598.975 591.127 598.858 591.168Q598.74 591.209 598.62 591.238Q598.499 591.267 598.375 591.284Q598.252 591.302 598.128 591.306Q598.004 591.311 597.879 591.304Q597.755 591.297 597.633 591.277Q597.51 591.258 597.389 591.226Q597.269 591.194 597.153 591.151Q597.036 591.108 596.924 591.053Q596.812 590.999 596.706 590.934Q596.6 590.869 596.501 590.793Q596.403 590.718 596.312 590.633Q596.22 590.548 596.138 590.455Q596.056 590.362 595.983 590.261Q595.91 590.16 595.848 590.052Q595.785 589.945 595.734 589.832Q595.682 589.718 595.642 589.601Q595.602 589.483 595.574 589.362Q595.545 589.241 595.529 589.117Q595.513 588.994 595.509 588.87Q595.505 588.745 595.513 588.621Q595.521 588.497 595.541 588.374Q595.562 588.252 595.594 588.131Q595.626 588.011 595.67 587.895Q595.714 587.779 595.769 587.667Q595.825 587.556 595.891 587.45Q595.957 587.345 596.032 587.246Q596.109 587.148 596.194 587.057Q596.279 586.967 596.373 586.885Z"/>
	<path fill="#010001" d="M610.135 586.782Q610.258 586.675 610.393 586.585Q610.529 586.495 610.676 586.424Q610.822 586.353 610.977 586.302Q611.131 586.251 611.291 586.221Q611.451 586.191 611.614 586.182Q611.776 586.173 611.938 586.186Q612.1 586.199 612.26 586.233Q612.419 586.267 612.572 586.322Q612.725 586.377 612.87 586.452Q613.015 586.526 613.148 586.62Q613.281 586.713 613.401 586.823Q613.521 586.933 613.626 587.057Q613.73 587.182 613.817 587.32Q613.904 587.458 613.972 587.605Q614.04 587.753 614.088 587.909Q614.136 588.064 614.163 588.225Q614.19 588.385 614.195 588.548Q614.201 588.711 614.185 588.873Q614.169 589.035 614.131 589.193Q614.094 589.351 614.036 589.503Q613.978 589.655 613.901 589.799Q613.823 589.942 613.727 590.073Q613.632 590.205 613.519 590.322Q613.407 590.44 613.28 590.542Q613.187 590.616 613.088 590.682Q612.988 590.747 612.883 590.802Q612.778 590.857 612.668 590.902Q612.557 590.947 612.443 590.981Q612.329 591.015 612.213 591.037Q612.096 591.06 611.978 591.071Q611.859 591.083 611.74 591.082Q611.621 591.082 611.503 591.071Q611.385 591.059 611.268 591.036Q611.151 591.013 611.037 590.978Q610.924 590.944 610.814 590.899Q610.704 590.854 610.598 590.798Q610.493 590.743 610.394 590.677Q610.295 590.612 610.202 590.537Q610.11 590.462 610.025 590.379Q609.94 590.295 609.864 590.204Q609.788 590.113 609.721 590.015Q609.654 589.916 609.596 589.812Q609.539 589.708 609.492 589.599Q609.445 589.489 609.409 589.376Q609.373 589.263 609.348 589.147Q609.323 589.03 609.309 588.912Q609.296 588.794 609.294 588.675Q609.291 588.556 609.301 588.438Q609.31 588.319 609.331 588.202Q609.352 588.085 609.384 587.97Q609.416 587.856 609.459 587.745Q609.502 587.634 609.555 587.528Q609.609 587.422 609.672 587.321Q609.736 587.221 609.809 587.127Q609.882 587.033 609.964 586.946Q610.045 586.86 610.135 586.782Z"/>
	<path fill="#EE5F59" d="M585.585 576.918C585.415 576.758 585.248 576.597 585.077 576.44C583.504 574.994 581.449 573.964 579.71 572.714C573.584 568.312 569.106 562.233 568.618 554.473Q568.591 554.024 568.586 553.574Q568.582 553.124 568.6 552.675Q568.619 552.225 568.66 551.777Q568.701 551.329 568.765 550.884Q568.829 550.439 568.916 549.997Q569.003 549.556 569.111 549.119Q569.22 548.683 569.351 548.252Q569.482 547.822 569.635 547.399Q569.788 546.976 569.961 546.561Q570.135 546.146 570.33 545.74Q570.525 545.335 570.74 544.94Q570.955 544.545 571.19 544.161Q571.425 543.777 571.68 543.406Q571.934 543.035 572.206 542.677Q572.479 542.319 572.77 541.976Q573.06 541.632 573.368 541.304Q573.691 540.958 574.031 540.629Q574.372 540.3 574.728 539.988Q575.085 539.677 575.457 539.384Q575.829 539.09 576.215 538.817Q576.602 538.543 577.001 538.289Q577.401 538.035 577.813 537.802Q578.225 537.569 578.649 537.357Q579.072 537.145 579.506 536.955Q579.94 536.765 580.382 536.597Q580.825 536.429 581.276 536.284Q581.726 536.139 582.184 536.016Q582.641 535.894 583.104 535.796Q583.568 535.697 584.035 535.622Q584.503 535.547 584.973 535.495Q585.444 535.444 585.917 535.417Q586.389 535.389 586.863 535.386C591.663 535.351 596.081 537.347 599.369 540.814C602.721 544.348 604.347 548.721 605.904 553.225C610.073 549.241 614.489 545.438 620.655 545.664C624.954 545.821 628.838 547.998 631.576 551.253C634.746 555.022 636.134 559.956 635.663 564.833C635.263 568.967 633.829 572.198 630.561 574.813C629.474 575.683 628.465 576.414 627.094 576.704C625.596 577.033 625.023 577.008 623.905 578.102Q622.668 578.329 621.427 578.531C614.94 579.575 611.891 577.821 606.803 574.13C601.248 577.2 595.293 578.116 589.039 577.475C587.651 576.808 587.445 576.765 585.914 576.923L585.585 576.918Z"/>
	<path fill="white" d="M823.076 644.767L823.45 645.37C814.498 650.925 783.65 708.727 775.631 722.612Q770.062 722.631 764.496 722.812C763.961 720.236 763.629 717.714 763.465 715.088C763.051 708.424 762.662 700.488 764.301 694.006C766.301 686.1 781.349 658.08 786.716 652.088C795.627 642.137 811.106 645.455 823.076 644.767Z"/>
	<path fill="white" d="M196.177 588.628Q210.887 588.504 225.596 588.749C225.626 597.188 226.744 615.596 225.088 622.895C224.46 625.662 223.185 628.272 221.159 630.284C217.974 633.448 213.651 634.6 209.257 634.538C207.996 634.521 206.723 634.393 205.468 634.279L205.404 644.096C201.319 642.724 195.068 643.48 190.727 643.52C193.712 631.186 192.861 618.298 194.444 605.811C191.255 606.475 188.363 607.161 185.42 605.298C183.77 604.253 182.559 602.635 182.127 600.719C181.722 598.922 181.978 596.942 182.977 595.376C183.89 593.947 185.352 593.05 187.003 592.729C190.3 592.087 193.176 593.846 195.891 595.473L196.177 588.628Z"/>
	<path fill="white" d="M789.609 584.337C799.06 589.246 809.113 590.513 819.584 591.399C820.193 592.714 820.72 593.583 821.681 594.664C823.05 594.093 823.346 592.976 824.079 591.728C826.224 592.055 827.958 592.416 829.894 593.418C832.191 593.72 834.195 594.388 835.613 596.344C836.977 598.226 837.181 600.627 836.668 602.84C836.078 605.384 834.519 607.83 832.257 609.197C830.668 610.158 828.552 610.585 826.744 610.041C825.976 609.81 825.219 609.408 824.547 608.981L823.954 608.646C823.68 608.147 823.221 607.769 822.825 607.363L821.899 607.646C819.63 611.108 820.995 635.49 820.888 641.499C817.236 641.695 813.542 641.635 809.883 641.676C809.686 639.089 809.63 636.485 809.526 633.892C804.257 633.581 799.512 632.826 795.589 628.897C788.49 621.787 789.494 610.606 789.525 601.405L789.609 584.337Z"/>
	<path fill="#010001" d="M829.894 593.418C832.191 593.72 834.195 594.388 835.613 596.344C836.977 598.226 837.181 600.627 836.668 602.84C836.078 605.384 834.519 607.83 832.257 609.197C830.668 610.158 828.552 610.585 826.744 610.041C825.976 609.81 825.219 609.408 824.547 608.981C827.564 606.982 830.489 606.305 833.153 603.527C834.373 602.255 834.89 601.272 834.898 599.519C834.519 598.892 834.214 598.46 833.578 598.069C830.579 596.227 828.972 600.02 825.996 600.627L825.584 599.959C826.133 596.486 827.211 595.559 829.894 593.418Z"/>
	<path fill="white" d="M607.78 725.978C616.543 726.116 630.633 725.045 638.6 727.011C642.139 727.885 645.544 729.548 648.762 731.22C652.393 733.108 655.879 735.26 658.734 738.232C663.745 743.448 664.084 749.391 665.788 755.996Q636.788 755.831 607.789 756.118C607.99 746.072 607.423 736.002 607.78 725.978Z"/>
	<path fill="white" d="M728.959 759.255Q808.62 758.746 888.283 759.063L993.479 759.107L993.564 769.94C993.612 788.694 989.376 805.397 975.647 819.013C966.415 828.169 953.14 834.897 940.227 836.625C931.336 837.814 922.066 837.371 913.113 837.393L871.512 837.441L740.421 837.562L292.75 837.606L159.018 837.539L115.504 837.642C107.059 837.666 98.5276 837.934 90.0915 837.555C73.7075 836.819 57.3552 829.569 46.3282 817.323C30.3444 799.573 28.0881 782.287 29.3581 759.458C62.3601 758.722 95.5116 759.419 128.527 759.442L323.263 759.926L728.959 759.255Z"/>
	<path fill="white" d="M355.102 634.678C361.955 633.922 369.357 634.5 376.257 634.568C376.877 638.035 377.804 641.092 379.766 644.068C382.774 648.627 387.417 652.006 392.811 653.075Q393.292 653.172 393.777 653.244Q394.262 653.316 394.75 653.363Q395.238 653.41 395.728 653.431Q396.218 653.453 396.709 653.449Q397.199 653.444 397.689 653.415Q398.178 653.385 398.666 653.33Q399.153 653.275 399.637 653.195Q400.121 653.115 400.6 653.01Q401.079 652.904 401.552 652.774Q402.025 652.644 402.49 652.49Q402.956 652.336 403.413 652.157Q403.87 651.979 404.317 651.777Q404.764 651.575 405.2 651.35Q405.636 651.126 406.059 650.878Q406.483 650.631 406.893 650.363Q407.303 650.094 407.699 649.804C412.628 646.17 414.906 640.866 415.842 634.996C429.063 634.797 444.219 633.574 454.693 643.543C457.224 645.953 459.3 648.795 461.027 651.822C467.918 663.898 473.377 677.333 479.49 689.865L492.013 715.742C494.338 720.568 497.052 725.457 498.846 730.501C499.624 732.687 499.942 735.201 499.997 737.525C500.114 742.467 498.867 746.972 495.359 750.577C492.598 753.416 490.016 754.651 486.142 755.379C476.984 757.102 466.308 756.09 456.944 756.092L401.082 756.073C400.954 746.314 401.024 736.542 400.999 726.783C407.082 726.8 443.037 727.832 445.42 725.653L445.391 724.352C442.319 717.609 433.131 695.817 428.501 691.625L428.012 691.814C428.595 697.919 438.476 716.829 441.45 723.567L349.327 723.6C353.271 714.908 359.702 702.781 362.371 693.857C362.824 692.345 363.251 691.056 362.509 689.603L361.548 689.856C357.432 694.159 348.607 716.936 345.792 723.501L297.158 723.492C303.991 706.838 311.459 690.338 318.829 673.91C322.729 665.217 326.778 653.292 332.639 645.827C338.127 638.839 346.572 635.719 355.102 634.678Z"/>
	<path fill="white" d="M838.724 643.629C839.361 643.549 840.016 643.539 840.658 643.508C848.714 643.125 855.425 644.84 861.489 650.418C866.872 655.37 870.901 661.981 874.784 668.133C891.377 694.424 902.702 724.471 904.094 755.764L819.043 755.623C821.506 748.782 825.7 741.918 828.981 735.401L849.46 694.578C851.796 689.916 854.848 685.149 856.702 680.311C857.156 679.125 857.088 678.104 856.971 676.879L856.245 676.357C852.759 678.042 848.795 688.54 846.984 692.24C836.832 713.552 825.609 734.379 815.155 755.545L726.46 755.754L726.519 725.981Q752.114 726.037 777.708 725.777Q791.292 701.072 805.685 676.83C809.974 669.562 813.973 661.784 818.827 654.901C823.868 647.752 830.438 645.065 838.724 643.629Z"/>
	<path fill="#EE5F59" d="M197.251 756.422C186.4 734.101 173.966 712.401 162.25 690.513C157.859 682.311 152.208 673.936 148.937 665.253C147.806 662.25 147.233 659.174 148.035 656.009C149.194 651.437 152.827 648.176 156.831 645.979C163.77 642.171 171.673 641.242 179.23 643.673C182.572 644.748 185.56 646.404 187.907 649.039C194.788 656.764 199.415 667.136 204.715 676.028C214.668 692.723 225.264 709.319 234.264 726.544L295.164 726.619C308.182 726.605 321.243 726.261 334.253 726.604C340.09 726.509 344.617 727.587 349.042 731.754C352.543 735.05 354.661 739.48 354.629 744.325C354.598 749.048 352.779 752.591 350.33 756.449Q320.425 756.726 290.52 756.504L197.251 756.422Z"/>
	<path fill="white" d="M334.253 726.604C340.09 726.509 344.617 727.587 349.042 731.754C352.543 735.05 354.661 739.48 354.629 744.325C354.598 749.048 352.779 752.591 350.33 756.449Q320.425 756.726 290.52 756.504Q290.01 741.755 290.235 726.999C304.825 727.004 319.695 727.51 334.253 726.604Z"/>
	<path fill="#010001" d="M331.279 737.771C335.976 737.572 341.609 736.774 346.127 738.106C346.967 738.926 347.1 738.775 347.239 740.015C344.673 742.371 334.3 741.302 330.516 741.271C325.574 741.322 320.713 741.532 315.872 740.375L315.704 739.08L314.675 739.72L315.138 740.098L315.816 738.988C320.513 737.154 326.306 737.726 331.279 737.771Z"/>
	<path fill="#010001" d="M344.781 742.742C346.178 742.487 346.292 742.263 347.457 743.031C347.601 744.276 347.554 744.287 346.891 745.361C344.241 747.113 322.933 746.321 318.375 746.33C318.208 746.33 318.04 746.346 317.873 746.33C316.59 746.207 316.263 746.277 315.356 745.339L315.866 744.161C320.926 741.885 337.45 743.48 344.183 742.808L344.781 742.742Z"/>
	<path fill="#010001" d="M316.836 748.543C322.799 748.55 340.709 747.702 345.36 749.044C345.996 750.166 345.865 750.563 345.806 751.874C341.091 751.877 318.906 752.72 316.771 750.698L316.836 748.543Z"/>
	<path fill="#010001" d="M319.941 733.065C325.683 732.65 331.665 732.775 337.413 733.023C338.812 734.114 339.973 735.282 341.178 736.582C336.52 736.207 323.768 737.057 320.529 735.037C319.838 734.607 320.024 733.805 319.941 733.065Z"/>
	<path fill="white" d="M387.612 573.059C390.301 575.46 392.722 577.443 396.086 578.824C399.586 578.232 402.781 577.365 406.137 576.208C407.882 576.628 410.616 577.018 411.984 578.214C412.197 578.4 412.692 579.04 412.799 579.367C413.809 582.458 413.16 629.097 412.68 634.551C412.183 640.197 409.696 644.057 405.465 647.657C402.446 649.304 399.737 650.354 396.246 650.315Q395.413 650.306 394.584 650.215Q393.756 650.124 392.941 649.952Q392.125 649.78 391.331 649.529Q390.536 649.277 389.771 648.949Q389.005 648.62 388.275 648.218Q387.545 647.816 386.858 647.344Q386.172 646.872 385.535 646.335Q384.898 645.797 384.317 645.2C382.319 643.126 380.82 640.405 380.297 637.561C379.079 630.937 379.821 623.163 379.873 616.395L380.232 578.239C382.546 576.229 385.013 574.667 387.612 573.059Z"/>
	<path fill="#010001" d="M391.714 585.673Q391.813 585.641 391.914 585.618Q392.015 585.596 392.118 585.582Q392.22 585.569 392.324 585.565Q392.427 585.561 392.531 585.566Q392.634 585.571 392.737 585.586Q392.839 585.6 392.94 585.624Q393.041 585.648 393.139 585.681Q393.238 585.714 393.332 585.756Q393.427 585.798 393.518 585.848Q393.609 585.898 393.694 585.956Q393.78 586.014 393.86 586.08Q393.94 586.146 394.014 586.218Q394.088 586.291 394.155 586.37Q394.222 586.449 394.281 586.534Q394.341 586.619 394.392 586.709Q394.444 586.799 394.487 586.893Q394.53 586.987 394.565 587.085Q394.599 587.183 394.624 587.283Q394.65 587.384 394.666 587.486Q394.682 587.588 394.689 587.692Q394.696 587.795 394.694 587.899Q394.691 588.002 394.679 588.105Q394.667 588.208 394.646 588.31Q394.625 588.411 394.594 588.51Q394.564 588.609 394.525 588.705Q394.486 588.801 394.438 588.893Q394.39 588.985 394.334 589.072Q394.278 589.16 394.215 589.241Q394.151 589.323 394.08 589.399Q394.01 589.475 393.932 589.544Q393.855 589.613 393.772 589.674Q393.689 589.736 393.6 589.79Q393.463 589.874 393.315 589.937Q393.168 590 393.013 590.043Q392.858 590.085 392.698 590.105Q392.539 590.125 392.379 590.122Q392.218 590.12 392.059 590.095Q391.901 590.07 391.747 590.023Q391.593 589.976 391.448 589.908Q391.303 589.84 391.168 589.752Q391.033 589.664 390.912 589.558Q390.792 589.453 390.687 589.331Q390.582 589.209 390.495 589.074Q390.408 588.939 390.341 588.793Q390.274 588.646 390.228 588.492Q390.183 588.339 390.159 588.18Q390.135 588.021 390.134 587.86Q390.133 587.699 390.154 587.54Q390.175 587.381 390.219 587.226Q390.262 587.071 390.327 586.924Q390.392 586.777 390.476 586.641Q390.561 586.504 390.664 586.381Q390.767 586.258 390.886 586.15Q391.006 586.042 391.139 585.953Q391.272 585.863 391.417 585.793Q391.561 585.722 391.714 585.673Z"/>
	<path fill="white" d="M679.302 726.192C693.85 725.677 708.491 725.994 723.051 726.008Q723.393 740.954 723.35 755.904L710.75 755.983L668.633 756.054C667.107 748.856 665.152 741.472 668.744 734.497C670.991 730.135 674.726 727.645 679.302 726.192Z"/>
	<path fill="#010001" d="M695.967 730.989C696.065 730.999 696.165 731.002 696.262 731.018C702.584 732.055 710.44 741.693 714.42 746.61C712.324 748.038 710.096 749.132 707.836 750.272C707.426 749.92 707.02 749.562 706.592 749.231C701.306 745.138 688.221 753.115 681.957 753.656C680.386 753.792 679.194 753.559 677.954 752.53C677.096 750.907 677.583 748.86 677.774 747.088C683.852 742.006 694.409 740.191 701.866 738.082C701.45 737.712 701.018 737.367 700.572 737.034C693.483 731.749 687.288 739.898 680.179 740.877L679.344 740.216L679.494 739.318C682.999 735.605 691.095 732.475 695.967 730.989Z"/>
	<path fill="white" d="M703.252 741.052C705.232 741.316 708.896 745.644 710.385 747.085L708.278 746.08C701.589 742.852 693.772 746.623 687.124 748.712C685.1 749.361 682.553 750.346 680.503 749.439C684.117 745.48 698.004 742.559 703.252 741.052Z"/>
	<path fill="white" d="M348.41 726.99L397.576 726.798C397.631 736.18 398.423 746.167 397.386 755.458C396.485 756.378 395.859 756.136 394.625 756.208Q374.55 756.334 354.476 756.188C356.965 752.025 358.461 747.618 358.088 742.711C357.559 735.762 353.419 731.288 348.41 726.99Z"/>
	<path fill="#EE5F59" d="M789.971 625.802C791.745 627.744 793.131 630.728 794.489 633.019C797.854 634.461 802.756 634.964 805.478 637.363C806.688 638.429 806.756 639.531 806.841 641.018L806.273 641.569L804.579 641.515C799.172 641.968 794.858 642.993 789.814 644.997Q789.675 635.398 789.971 625.802Z"/>
	<path fill="white" d="M645.004 726.209C654.045 725.62 663.318 726.046 672.382 726.103C670.111 727.751 668.234 729.289 666.368 731.409C665.054 733.498 664.235 735.701 663.362 737.993C657.51 732.845 652.287 729.077 645.004 726.209Z"/>
	<path fill="white" d="M415.967 585.357C417.15 585.512 418.513 585.626 419.592 586.167C421.173 586.96 422.263 588.128 422.685 589.884C423.307 592.474 421.964 595.153 420.636 597.275C419.652 597.877 418.597 598.694 417.413 598.746C416.91 598.767 416.837 598.719 416.521 598.331C414.712 596.108 415.879 588.183 415.967 585.357Z"/>
	<path fill="white" d="M373.676 586.468C374.651 586.442 375.395 586.518 376.339 586.764C376.672 587.284 376.73 587.32 376.961 588.001C377.934 590.864 377.799 596.489 376.557 599.194L375.185 599.44C374.228 598.779 373.201 598.096 372.388 597.258C371.229 596.065 370.451 594.403 370.455 592.73C370.46 590.052 371.942 588.332 373.676 586.468Z"/>
	<path fill="white" d="M501.899 746.388C504.3 749.887 506.62 753.024 509.626 756.039L501.637 756.125L494.179 756.016C497.343 753.038 499.784 750.201 501.899 746.388Z"/>
	<path fill="#010001" d="M476.227 231.7C487.584 230.495 500.866 233.979 510.662 239.677C523.939 247.4 534.254 261.99 538.118 276.767Q538.761 279.325 539.146 281.935Q539.53 284.545 539.651 287.18Q539.772 289.815 539.629 292.449Q539.486 295.083 539.08 297.69C535.155 324.631 513.097 335.227 506.41 358.705C502.356 372.941 507.936 393.456 500.555 405.393C496.543 411.882 490.284 415.259 483.077 416.987C482.847 417.014 482.618 417.043 482.388 417.066C474.745 417.855 466.77 416.091 460.822 411.034C448.015 400.144 453.869 380.615 451.707 365.912C447.381 336.488 421.442 325.36 418.798 296.988Q418.663 295.53 418.601 294.067Q418.538 292.604 418.547 291.14Q418.556 289.676 418.638 288.214Q418.719 286.752 418.872 285.296Q419.025 283.84 419.25 282.393Q419.475 280.946 419.77 279.512Q420.066 278.078 420.431 276.66Q420.797 275.242 421.232 273.844Q421.667 272.446 422.171 271.071Q422.674 269.696 423.244 268.347Q423.815 266.999 424.451 265.68Q425.087 264.361 425.787 263.075Q426.487 261.789 427.249 260.539Q428.012 259.289 428.835 258.078Q429.658 256.867 430.54 255.698Q431.422 254.529 432.36 253.405C443.694 239.994 458.987 233.203 476.227 231.7Z"/>
	<path fill="white" d="M473.685 234.675C478.595 233.889 484.478 234.341 489.349 235.219C504.239 237.903 517.597 245.941 526.155 258.484C539.397 277.889 540.317 298.988 527.802 319.017C524.933 323.608 521.313 327.805 518.005 332.085C509.77 342.74 504.192 353.404 501.647 366.679C496.646 366.8 491.628 366.771 486.625 366.815L455.189 366.878C453.274 356.432 449.758 346.891 443.9 337.992C434.696 324.011 424.249 316.411 421.882 298.412C419.985 283.995 424.795 268.038 433.683 256.637C443.594 243.925 457.887 236.703 473.685 234.675Z"/>
	<path fill="#EE5F59" d="M476.456 264.247C477.183 264.287 477.92 264.345 478.615 264.581C479.957 265.038 480.965 266.128 481.583 267.38C484.152 272.587 481.365 279.718 479.607 284.779C482.344 289.588 485.472 293.715 489.893 297.072C493.706 293.191 512.169 271.85 514.984 271.106C516.022 271.709 515.962 271.434 516.373 272.69C511.429 280.151 497.959 291.907 491.484 299.676C491.655 311.946 494.81 338.642 488.081 348.446C485.682 351.942 483.16 353.223 479.097 354.077C475.809 353.393 473.238 352.179 470.931 349.665C468.532 347.052 467.096 343.796 466.34 340.357C464.448 331.742 465.024 309.969 465.4 300.5C460.919 296.651 439.762 276.797 438.65 273.3C439.435 272.218 439.436 272.298 440.756 272.017C442.526 272.651 462.847 294.296 466.564 297.549C470.251 293.761 472.864 289.358 475.559 284.847C474.364 281.197 473.34 277.517 473.246 273.649C473.153 269.79 473.809 267.063 476.456 264.247Z"/>
	<path fill="white" d="M477.335 287.876C481.54 292.172 483.098 295.332 488.411 299.644C488.59 310.107 490.529 333.401 487.799 342.235C486.506 346.419 484.637 348.854 480.766 350.865C477.893 350.567 475.932 349.991 473.841 347.912C471.702 345.784 470.399 342.907 469.706 340.004C467.251 329.721 468.449 310.898 468.448 299.854C472.178 296.273 474.643 292.258 477.335 287.876Z"/>
	<path fill="white" d="M476.975 267.701L478.23 268.517C480.306 271.897 478.834 277.077 477.981 280.725L477.443 280.755C477.359 280.633 477.26 280.52 477.191 280.388C475.724 277.604 476.255 270.669 476.975 267.701Z"/>
	<path fill="white" d="M455.271 389.991C470.524 389.527 485.897 389.788 501.163 389.836C500.948 397.635 499.93 402.201 494.344 407.96C489.699 411.756 484.661 414.224 478.538 414.369Q477.977 414.383 477.416 414.369Q476.855 414.356 476.295 414.315Q475.735 414.273 475.178 414.205Q474.621 414.136 474.068 414.04Q473.515 413.944 472.968 413.821Q472.42 413.698 471.879 413.548Q471.338 413.398 470.805 413.222Q470.273 413.045 469.749 412.843Q469.226 412.641 468.713 412.413Q468.2 412.185 467.699 411.932Q467.198 411.679 466.71 411.402Q466.222 411.125 465.748 410.824Q465.274 410.523 464.816 410.199Q464.357 409.875 463.915 409.529Q463.473 409.183 463.049 408.816Q462.625 408.449 462.219 408.061C456.909 402.962 455.523 397.054 455.271 389.991Z"/>
	<path fill="white" d="M455.469 370.037L501.475 369.989Q501.571 378.27 501.275 386.546C486.182 387.405 470.64 386.665 455.501 386.653L455.469 370.037Z"/>
	<path fill="#010001" d="M771.253 296.634C779.224 295.81 787.394 296.204 795.002 298.863C807.67 303.291 818.38 312.343 824.224 324.471C832.695 342.052 829.974 360.711 819.288 376.589C813.8 384.743 807.366 392.051 804.575 401.68C801.174 413.416 804.811 426.129 800.676 437.384C797.987 444.704 792.661 449.512 785.727 452.68C785.022 452.896 784.331 453.101 783.608 453.254C776.94 454.664 770.195 453.624 764.511 449.733Q763.333 448.926 762.259 447.985Q760.844 446.734 759.629 445.289C751.213 435.318 757.715 414.913 754.408 402.365C749.745 384.673 732.271 379.315 728.134 355.757C725.873 342.884 728.618 329.033 736.191 318.323C744.777 306.182 756.724 299.114 771.253 296.634Z"/>
	<path fill="white" d="M772.785 299.644C777.506 299.04 782.66 299.223 787.347 300.07C799.238 302.22 810.825 309.763 817.69 319.683C829.028 336.069 828.616 355.697 818.206 372.33C813.746 379.456 808.016 385.876 804.314 393.457C801.758 398.693 800.571 403.932 799.528 409.637C794.458 409.921 789.329 409.807 784.251 409.844L758.658 409.965C757.209 384.864 735.624 379.676 731.29 354.997C729.187 343.018 731.911 329.749 738.964 319.791C747.108 308.295 759.06 301.895 772.785 299.644Z"/>
	<path fill="#2A4EA9" d="M774.451 330.725C776.272 329.758 777.613 329.149 779.674 329.736C780.519 329.977 781.337 330.299 782.155 330.617C783.712 332.651 783.767 334.383 783.407 336.883C783.136 338.764 782.693 341.045 782.031 342.82C781.71 344.214 781.284 345.429 781.758 346.837C785.03 348.54 789.21 349.444 791.404 352.576Q790.149 363.487 789.508 374.452C789.185 379.979 789.196 385.732 788.337 391.19C788.057 392.842 787.635 394.339 786.796 395.807Q786.58 396.194 786.326 396.557Q786.072 396.92 785.783 397.255Q785.494 397.591 785.173 397.896Q784.852 398.201 784.502 398.473Q784.152 398.744 783.776 398.979Q783.401 399.214 783.004 399.411Q782.607 399.607 782.192 399.762Q781.777 399.918 781.349 400.031Q780.865 400.155 780.372 400.228Q779.878 400.301 779.379 400.322Q778.88 400.343 778.382 400.312Q777.884 400.282 777.392 400.199Q776.899 400.117 776.418 399.984Q775.937 399.851 775.472 399.669Q775.008 399.487 774.564 399.258Q774.121 399.028 773.704 398.754C771.713 397.47 770.253 395.493 769.425 393.29C767.06 386.995 766.776 367.139 766.517 359.279C766.454 357.354 767.192 354.986 766.784 353.189C766.736 352.977 766.675 352.769 766.621 352.559C767.017 351.724 767.573 350.951 768.068 350.17Q771.854 348.988 775.624 347.754C774.896 344.184 771.387 336.567 772.226 333.269C772.603 331.79 773.264 331.559 774.451 330.725Z"/>
	<path fill="white" d="M779.539 349.801C782.556 350.792 785.381 351.988 788.051 353.734C787.747 365.347 786.896 376.983 786.213 388.582C785.874 390.737 785.366 393.127 783.921 394.832C782.68 396.297 780.267 397.802 778.284 397.8C776.653 397.798 775.311 397.259 774.192 396.084C772.546 394.355 771.663 391.836 771.193 389.541C770.507 386.186 770.713 382.633 770.546 379.226C770.134 370.822 769.429 362.589 769.582 354.155C771.675 352.261 773.321 351.133 776.124 350.674C777.013 350.528 777.82 350.379 778.678 350.094L779.539 349.801Z"/>
	<path fill="white" d="M776.602 332.057C778.083 332.23 779.57 332.354 781.017 332.729C780.951 336.092 780.248 339.385 779.654 342.686L779.136 347.707C777.459 344.633 774.329 336.869 775.036 333.49C775.23 332.567 775.851 332.505 776.602 332.057Z"/>
	<path fill="#2A4EA9" d="M766.621 352.559C765.981 352.392 765.367 352.233 764.76 351.964C758.873 349.353 750.744 339.604 748.399 333.554L748.774 332.926L748.318 333.19L748.314 333.188C748.825 333.12 749.345 332.86 749.846 332.983C752.424 333.614 758.801 346.413 767.424 349.915L768.068 350.17C767.573 350.951 767.017 351.724 766.621 352.559Z"/>
	<path fill="#2A4EA9" d="M806.625 332.875L807.835 334.122L807.738 335.264C803.383 340.214 797.706 348.224 792.413 351.853L791.401 350.555C792.88 346.479 803.119 336.157 806.625 332.875Z"/>
	<path fill="white" d="M758.67 429.244C772.117 428.625 785.777 429.061 799.248 429.019C798.113 435.142 796.72 439.391 792.629 444.217C788.34 448.231 783.63 450.756 777.616 450.68Q777.091 450.669 776.567 450.632Q776.043 450.594 775.521 450.53Q775 450.466 774.482 450.376Q773.965 450.285 773.452 450.169Q772.94 450.052 772.434 449.91Q771.929 449.767 771.431 449.599Q770.933 449.431 770.444 449.238Q769.956 449.044 769.478 448.827Q769 448.609 768.533 448.367Q768.067 448.125 767.613 447.86Q767.159 447.595 766.72 447.307Q766.28 447.019 765.856 446.709Q765.432 446.4 765.024 446.068Q764.616 445.737 764.225 445.386Q763.835 445.035 763.462 444.664Q763.09 444.293 762.737 443.904C758.789 439.471 758.227 434.879 758.67 429.244Z"/>
	<path fill="white" d="M758.643 413.218C772.207 412.737 785.918 413.095 799.498 413.114C799.587 417.339 799.631 421.529 799.443 425.752C785.879 426.135 772.261 425.956 758.689 426.004C758.609 421.745 758.653 417.478 758.643 413.218Z"/>
	<path fill="#010001" d="M927.815 436.684C936.448 435.801 944.647 436.545 952.704 439.889C964.265 444.688 974.505 454.123 979.233 465.836C981.567 471.619 982.572 478.052 982.46 484.273C982.013 509.306 961.463 514.978 955.747 535.97C952.504 547.878 956.96 563.918 952.399 573.962C949.697 579.914 945.045 583.174 939.075 585.319Q938.11 585.5 937.142 585.659Q936.548 585.76 935.949 585.832Q935.35 585.903 934.748 585.943Q934.146 585.984 933.544 585.994Q932.941 586.004 932.338 585.984Q931.735 585.963 931.134 585.912Q930.533 585.861 929.936 585.779Q929.338 585.698 928.746 585.586Q928.153 585.474 927.567 585.333Q926.981 585.191 926.403 585.02Q925.824 584.849 925.255 584.648Q924.687 584.448 924.129 584.219Q923.571 583.99 923.025 583.733Q922.48 583.476 921.948 583.192Q921.416 582.907 920.9 582.596Q920.383 582.285 919.883 581.948Q919.383 581.612 918.9 581.25Q917.41 580.138 916.129 578.791C906.656 568.806 912.024 551.929 909.408 539.378C905.373 520.016 886.611 512.484 883.79 489.512C882.295 477.34 885.148 464.923 892.799 455.21C901.875 443.688 913.514 438.46 927.815 436.684Z"/>
	<path fill="white" d="M929.86 439.701C932.528 439.342 935.551 439.412 938.238 439.606Q939.348 439.696 940.452 439.84Q941.556 439.984 942.651 440.183Q943.746 440.382 944.831 440.634Q945.915 440.887 946.985 441.193Q948.056 441.498 949.11 441.857Q950.164 442.215 951.199 442.625Q952.234 443.035 953.248 443.496Q954.261 443.956 955.251 444.467Q956.24 444.977 957.203 445.535Q958.167 446.094 959.101 446.699Q960.035 447.304 960.939 447.955Q961.842 448.606 962.712 449.301Q963.582 449.995 964.417 450.732Q965.251 451.469 966.048 452.246Q966.846 453.023 967.604 453.838Q968.361 454.654 969.078 455.506C974.533 461.955 978.042 469.353 979.081 477.752C982.376 504.39 962.336 510.247 953.95 531.482C951.997 536.425 951.35 541.241 950.893 546.507L937.25 546.516L913.652 546.484C911.367 518.009 889.487 513.434 886.812 487.618C885.605 475.967 888.706 465.317 896.137 456.248C905.092 445.32 916.134 441.139 929.86 439.701Z"/>
	<path fill="#EE5F59" d="M903.558 468.153C906.705 469.545 909.673 473.547 912.123 476.065C915.15 479.177 919.45 482.79 921.525 486.572C925.119 493.121 922.304 518.676 928.069 528.631C929.096 530.405 929.977 531.331 932.019 531.901C933.467 531.774 934.383 531.408 935.497 530.497C937.093 529.192 938.348 526.988 938.909 525.026C940.552 519.276 940.669 512.919 941.171 506.976Q941.972 496.45 943.341 485.983C947.056 482.516 956.568 471.813 960.423 470.295C961.194 469.992 961.347 470.287 962.025 470.617L962.319 471.696L961.501 472.839C956.564 478.237 951.05 483.069 946.139 488.506C945.469 497.565 944.391 522.877 940.706 529.582C939.436 531.892 937.523 533.929 934.888 534.57C932.493 535.153 929.716 534.528 927.723 533.103C917.725 525.955 923.397 496.953 917.83 487.235C915.621 483.381 911.331 480.4 908.11 477.424C906.309 475.759 902.724 473.129 902.394 470.571C902.272 469.631 903.051 468.905 903.558 468.153Z"/>
	<path fill="#EE5F59" d="M931.568 463.718C931.717 463.747 931.867 463.766 932.013 463.805C935.552 464.766 934.492 472.771 936.291 475.521C937.987 476.395 939.658 477.141 940.297 479.073C941.741 483.438 936.546 490.947 934.525 494.665C930.442 490.247 927.033 484.603 925.221 478.859C926.628 473.816 928.697 468.105 931.568 463.718Z"/>
	<path fill="white" d="M931.265 470.906C932.541 472.552 932.852 475.788 933.342 477.851L937.646 480.198C936.695 482.97 935.535 485.637 934.373 488.325L933.473 488.242C931.423 485.818 930.069 482.956 928.602 480.161C929.39 477.043 930.32 473.979 931.265 470.906Z"/>
	<path fill="white" d="M913.824 549.918C926.149 549.459 938.599 549.788 950.938 549.789C950.97 554.206 951.167 558.679 950.529 563.06L913.817 562.92C913.617 558.561 913.646 554.277 913.824 549.918Z"/>
	<path fill="white" d="M913.722 566.504C926.086 565.87 938.758 566.284 951.139 566.539C950.298 571.126 948.798 574.147 945.793 577.655C943.45 579.805 940.887 581.373 937.796 582.209C932.638 583.604 927.153 582.654 922.614 579.892C917.252 576.63 915.039 572.39 913.722 566.504Z"/>
	<path fill="#010001" d="M75.2656 431.165Q76.7406 431.005 78.2226 430.938Q79.7047 430.87 81.1881 430.894Q82.6715 430.919 84.1505 431.036Q85.6295 431.152 87.0984 431.361Q88.5673 431.569 90.0204 431.868Q91.4735 432.167 92.9052 432.556Q94.3369 432.945 95.7416 433.422Q97.1464 433.9 98.5188 434.463C109.026 438.777 117.591 446.688 121.982 457.237C127.826 471.281 125.151 485.681 116.175 497.671C110.876 504.75 104.023 511.862 101.347 520.474C98.0668 531.029 102.501 543.082 98.0201 553.122C95.5473 558.662 91.01 561.083 85.6364 563.152C85.5282 563.174 85.4206 563.199 85.3118 563.218C79.2689 564.27 72.8582 563.347 67.7936 559.697Q66.0753 558.466 64.6895 556.87C57.5133 548.532 61.5749 533.554 59.1707 523.252C55.0492 505.592 38.1798 497.21 35.6949 479.139C34.1971 468.247 37.4604 456.946 44.0841 448.227C51.7484 438.14 62.935 432.899 75.2656 431.165Z"/>
	<path fill="white" d="M75.8242 434.166Q80.6691 433.594 85.52 434.112C96.4123 435.376 107.23 440.827 114.062 449.508Q114.831 450.496 115.532 451.533Q116.232 452.571 116.86 453.654Q117.489 454.737 118.042 455.86Q118.595 456.983 119.071 458.141Q119.546 459.299 119.942 460.487Q120.338 461.674 120.652 462.886Q120.966 464.098 121.197 465.328Q121.428 466.559 121.575 467.802C125.003 495.868 100.378 500.603 96.9969 527.444L86.5446 527.483L63.2634 527.471C61.8861 519.886 59.3593 512.923 55.0448 506.492C48.7337 497.085 40.6277 490.604 38.9003 478.67C37.4592 468.714 40.3509 458.375 46.3771 450.376C53.6701 440.696 64.0471 435.863 75.8242 434.166Z"/>
	<path fill="#EE5F59" d="M79.0546 459.587C79.8138 459.75 80.6367 460.035 81.0819 460.739C84.319 465.862 83.7394 474.133 87.3149 479.53C87.6631 479.695 87.9767 479.981 88.3595 480.025C91.1944 480.353 100.793 464.201 106.065 463.688L106.938 464.468C105.918 468.068 93.0704 479.437 89.9013 484.05C89.7828 484.223 89.6683 484.398 89.5518 484.572C89.3491 491.842 89.5305 499.545 88.4442 506.734C87.6877 511.741 86.3139 515.213 82.2054 518.269C81.3183 518.401 80.3977 518.546 79.499 518.529C77.4493 518.491 75.3435 517.467 73.9391 515.999C67.4467 509.214 69.3682 492 69.3981 483.051C65.19 476.876 57.8243 471.421 54.8503 464.73L55.3343 464.074C60.5277 464.543 68.4886 476.937 72.2641 480.944C75.2993 474.123 76.1327 466.488 79.0546 459.587Z"/>
	<path fill="white" d="M79.4972 467.293C82.4607 470.924 82.3957 476.984 85.0157 481.074C85.3733 481.632 85.7282 482.108 86.0443 482.692C87.8959 486.11 85.4237 507.678 83.8754 511.677C83.0373 513.841 82.1761 514.656 80.0496 515.554C77.9634 515.065 76.5859 514.41 75.3943 512.568C71.4224 506.426 71.6739 489.973 72.9882 483.033C73.6821 482.499 75.1821 481.532 75.6767 480.816C77.4635 478.226 78.4223 470.768 79.4972 467.293Z"/>
	<path fill="white" d="M63.4474 542.893C72.0976 542.483 88.6145 542.015 96.6891 543.128L97.2763 544.344C97.4097 548.406 94.9545 552.582 92.3659 555.544Q91.798 556.088 91.1851 556.58Q90.5722 557.072 89.919 557.51Q89.2658 557.947 88.5771 558.326Q87.8884 558.705 87.1694 559.023Q86.4505 559.341 85.7067 559.596Q84.9629 559.85 84.1998 560.039Q83.4368 560.228 82.6602 560.35Q81.8836 560.473 81.0994 560.527Q80.2312 560.582 79.3619 560.549Q78.4926 560.517 77.6312 560.396Q76.7697 560.275 75.9249 560.067Q75.0802 559.859 74.2609 559.567Q73.4416 559.274 72.6562 558.9Q71.8708 558.526 71.1274 558.074Q70.384 557.623 69.6903 557.098Q68.9966 556.573 68.3598 555.98C64.3854 552.216 63.4586 548.116 63.4474 542.893Z"/>
	<path fill="white" d="M63.5225 530.35C74.6699 530.709 85.9109 530.483 97.0673 530.514L97.1102 539.586Q80.3573 539.875 63.602 539.81L63.5225 530.35Z"/>
	<path fill="#CC322F" d="M549.46 250.147C554.722 249.614 571.789 248.8 576.184 250.611C577.094 251.706 576.91 251.88 576.868 253.328C570.701 253.773 556.327 254.426 550.832 252.84C549.625 251.778 549.698 251.752 549.46 250.147Z"/>
	<path fill="#CC322F" d="M412.557 203.732C416.681 204.122 428.991 214.268 432.364 217.648C433.613 218.9 433.599 219.5 433.634 221.233C428.14 220.697 417.596 211.741 413.806 207.664C412.429 206.182 412.534 205.644 412.557 203.732Z"/>
	<path fill="#CC322F" d="M381.491 259.128C388.155 258.849 395.399 258.622 402.046 259.161C403.597 259.287 404.443 259.24 405.45 260.468C405.295 261.844 405.418 261.865 404.375 262.744C399.088 262.765 385.575 264.02 381.383 261.891C380.88 260.593 381.058 260.478 381.491 259.128Z"/>
	<path fill="#CC322F" d="M558.292 301.383C566.35 302.258 574.994 302.236 582.907 303.784C583.734 304.947 583.561 305.049 583.402 306.493C576.488 306.901 568.411 306.434 561.579 305.262C560.045 304.999 558.718 304.894 557.799 303.607L558.292 301.383Z"/>
	<path fill="#EE5F59" d="M401.805 320.87C402.727 321.137 402.422 320.946 403.136 321.538C403.822 322.109 403.628 322.216 403.681 323.047C401.188 327.17 390.905 333.676 386.48 336.051C386.387 335.998 386.29 335.951 386.2 335.893C385.131 335.21 384.6 335.073 384.3 333.743C388.162 329.591 396.864 323.662 401.805 320.87Z"/>
	<path fill="#EE5F59" d="M536.494 201.368C537.557 201.472 537.527 201.553 538.344 202.118L538.491 203.051C535.833 208.092 527.287 213.951 522.867 217.678C521.757 217.448 521.599 217.363 520.76 216.599L520.772 215.463C524.184 210.073 531.559 205.379 536.494 201.368Z"/>
	<path fill="#EE5F59" d="M478.825 184.196L480.263 185.185C480.592 185.988 480.815 186.654 480.896 187.525C481.257 191.406 482.178 204.49 479.864 207.363L478.46 206.651C477.645 205.768 477.549 204.932 477.433 203.778C477.123 200.674 476.44 188.262 477.7 185.594C477.955 185.053 478.45 184.662 478.825 184.196Z"/>
	<path fill="#CC322F" d="M538.265 340.716C538.492 340.731 538.719 340.736 538.944 340.763C540.722 340.977 553.961 350.963 555.337 352.776C556.159 353.859 555.851 354.351 555.676 355.632C555.356 355.613 555.034 355.617 554.716 355.575C552.225 355.247 540 346.289 538.569 344.178C537.638 342.805 537.992 342.206 538.265 340.716Z"/>
</svg>
